<svg width="34" height="33" viewBox="0 0 34 33" fill="none" xmlns="http://www.w3.org/2000/svg">
<path d="M17.0568 0.662781C13.8428 0.662781 10.7011 1.59366 8.02875 3.33771C5.35645 5.08176 3.27365 7.56064 2.04373 10.4609C0.813804 13.3611 0.491999 16.5525 1.11901 19.6314C1.74602 22.7103 3.29368 25.5384 5.56628 27.7581C7.83889 29.9779 10.7344 31.4896 13.8866 32.102C17.0387 32.7144 20.3061 32.4001 23.2754 31.1988C26.2447 29.9975 28.7826 27.9631 30.5682 25.3529C32.3537 22.7428 33.3068 19.6741 33.3068 16.5349C33.3022 12.3267 31.5887 8.29215 28.5422 5.31652C25.4957 2.34089 21.3651 0.667225 17.0568 0.662781ZM17.0568 29.9651C14.3373 29.9651 11.6789 29.1774 9.41768 27.7017C7.1565 26.226 5.39413 24.1285 4.35343 21.6744C3.31272 19.2203 3.04043 16.52 3.57097 13.9148C4.10152 11.3096 5.41108 8.91652 7.33405 7.03827C9.25702 5.16001 11.707 3.88091 14.3743 3.3627C17.0415 2.84449 19.8062 3.11045 22.3187 4.12696C24.8312 5.14346 26.9786 6.86485 28.4895 9.07344C30.0003 11.282 30.8068 13.8786 30.8068 16.5349C30.8026 20.0956 29.3526 23.5092 26.7749 26.027C24.1972 28.5448 20.7022 29.9611 17.0568 29.9651ZM9.55677 13.4825C9.55677 13.1203 9.66674 12.7663 9.87276 12.4651C10.0788 12.1639 10.3716 11.9292 10.7142 11.7906C11.0568 11.6519 11.4339 11.6157 11.7976 11.6863C12.1613 11.757 12.4954 11.9314 12.7576 12.1876C13.0198 12.4437 13.1984 12.77 13.2707 13.1253C13.3431 13.4805 13.306 13.8487 13.164 14.1834C13.0221 14.518 12.7818 14.8041 12.4735 15.0053C12.1651 15.2065 11.8026 15.3139 11.4318 15.3139C10.9345 15.3139 10.4576 15.121 10.1059 14.7775C9.75431 14.4341 9.55677 13.9683 9.55677 13.4825ZM24.5568 13.4825C24.5568 13.8448 24.4468 14.1988 24.2408 14.5C24.0347 14.8012 23.7419 15.0359 23.3993 15.1745C23.0567 15.3132 22.6797 15.3494 22.316 15.2788C21.9523 15.2081 21.6182 15.0337 21.3559 14.7775C21.0937 14.5214 20.9151 14.1951 20.8428 13.8398C20.7705 13.4846 20.8076 13.1163 20.9495 12.7817C21.0914 12.4471 21.3317 12.161 21.6401 11.9598C21.9484 11.7586 22.3109 11.6512 22.6818 11.6512C23.1791 11.6512 23.656 11.8441 24.0076 12.1876C24.3592 12.531 24.5568 12.9968 24.5568 13.4825ZM24.3896 20.8081C22.7818 23.5232 20.1083 25.0814 17.0568 25.0814C14.0052 25.0814 11.3333 23.5247 9.72552 20.8081C9.63508 20.6692 9.57435 20.5138 9.54699 20.3513C9.51963 20.1888 9.5262 20.0226 9.56631 19.8627C9.60641 19.7027 9.67923 19.5524 9.78038 19.4206C9.88152 19.2889 10.0089 19.1785 10.1549 19.0961C10.3008 19.0137 10.4623 18.961 10.6297 18.9411C10.797 18.9213 10.9668 18.9347 11.1287 18.9805C11.2906 19.0264 11.4413 19.1038 11.5718 19.2081C11.7023 19.3123 11.8099 19.4413 11.888 19.5872C13.0552 21.5575 14.8896 22.6395 17.0568 22.6395C19.224 22.6395 21.0583 21.5559 22.224 19.5872C22.3897 19.3067 22.6628 19.102 22.983 19.0181C23.3033 18.9343 23.6446 18.9781 23.9318 19.14C24.219 19.3019 24.4285 19.5686 24.5144 19.8815C24.6002 20.1943 24.5553 20.5276 24.3896 20.8081Z" fill="#333333"/>
</svg>
