<svg width="33" height="33" viewBox="0 0 33 33" fill="none" xmlns="http://www.w3.org/2000/svg">
<path d="M16.4133 0.662781C13.1994 0.662781 10.0576 1.59366 7.38532 3.33771C4.71302 5.08176 2.63022 7.56064 1.40029 10.4609C0.170371 13.3611 -0.151433 16.5525 0.475577 19.6314C1.10259 22.7103 2.65025 25.5384 4.92285 27.7581C7.19546 29.9779 10.0909 31.4896 13.2431 32.102C16.3953 32.7144 19.6626 32.4001 22.6319 31.1988C25.6012 29.9975 28.1391 27.9631 29.9247 25.3529C31.7103 22.7428 32.6633 19.6741 32.6633 16.5349C32.6588 12.3267 30.9453 8.29215 27.8988 5.31652C24.8523 2.34089 20.7217 0.667225 16.4133 0.662781ZM16.4133 29.9651C13.6938 29.9651 11.0354 29.1774 8.77425 27.7017C6.51307 26.226 4.7507 24.1285 3.70999 21.6744C2.66929 19.2203 2.39699 16.52 2.92754 13.9148C3.45809 11.3096 4.76765 8.91652 6.69062 7.03827C8.61359 5.16001 11.0636 3.88091 13.7308 3.3627C16.3981 2.84449 19.1628 3.11045 21.6752 4.12696C24.1877 5.14346 26.3352 6.86485 27.846 9.07344C29.3569 11.282 30.1633 13.8786 30.1633 16.5349C30.1592 20.0956 28.7092 23.5092 26.1315 26.027C23.5538 28.5448 20.0588 29.9611 16.4133 29.9651ZM8.91334 13.4825C8.91334 13.1203 9.0233 12.7663 9.22933 12.4651C9.43536 12.1639 9.72819 11.9292 10.0708 11.7906C10.4134 11.6519 10.7904 11.6157 11.1541 11.6863C11.5178 11.757 11.8519 11.9314 12.1142 12.1876C12.3764 12.4437 12.555 12.77 12.6273 13.1253C12.6997 13.4805 12.6625 13.8487 12.5206 14.1834C12.3787 14.518 12.1384 14.8041 11.83 15.0053C11.5217 15.2065 11.1592 15.3139 10.7883 15.3139C10.2911 15.3139 9.81414 15.121 9.46251 14.7775C9.11088 14.4341 8.91334 13.9683 8.91334 13.4825ZM23.9133 13.4825C23.9133 13.8448 23.8034 14.1988 23.5973 14.5C23.3913 14.8012 23.0985 15.0359 22.7559 15.1745C22.4133 15.3132 22.0363 15.3494 21.6725 15.2788C21.3088 15.2081 20.9747 15.0337 20.7125 14.7775C20.4503 14.5214 20.2717 14.1951 20.1994 13.8398C20.127 13.4846 20.1641 13.1163 20.3061 12.7817C20.448 12.4471 20.6883 12.161 20.9966 11.9598C21.305 11.7586 21.6675 11.6512 22.0383 11.6512C22.5356 11.6512 23.0125 11.8441 23.3642 12.1876C23.7158 12.531 23.9133 12.9968 23.9133 13.4825ZM23.7446 23.25C23.835 23.389 23.8958 23.5444 23.9231 23.7068C23.9505 23.8693 23.9439 24.0355 23.9038 24.1955C23.8637 24.3554 23.7909 24.5058 23.6897 24.6375C23.5886 24.7692 23.4612 24.8796 23.3152 24.962C23.1693 25.0444 23.0078 25.0972 22.8404 25.117C22.6731 25.1369 22.5033 25.1234 22.3414 25.0776C22.1795 25.0317 22.0288 24.9543 21.8983 24.85C21.7678 24.7458 21.6602 24.6168 21.5821 24.4709C20.4149 22.5006 18.5805 21.4186 16.4133 21.4186C14.2461 21.4186 12.4118 22.5022 11.2446 24.4709C11.1664 24.6168 11.0589 24.7458 10.9284 24.85C10.7979 24.9543 10.6472 25.0317 10.4853 25.0776C10.3233 25.1234 10.1536 25.1369 9.98625 25.117C9.8189 25.0972 9.65738 25.0444 9.51143 24.962C9.36547 24.8796 9.23809 24.7692 9.13694 24.6375C9.0358 24.5058 8.96298 24.3554 8.92287 24.1955C8.88277 24.0355 8.87619 23.8693 8.90355 23.7068C8.93092 23.5444 8.99165 23.389 9.08209 23.25C10.6899 20.5349 13.3618 18.9767 16.4133 18.9767C19.4649 18.9767 22.1368 20.5334 23.7446 23.25Z" fill="#333333"/>
</svg>
