<svg width="33" height="33" viewBox="0 0 33 33" fill="none" xmlns="http://www.w3.org/2000/svg">
<path d="M16.7476 31.1861C25.0319 31.1861 31.7476 24.6265 31.7476 16.5349C31.7476 8.44328 25.0319 1.88373 16.7476 1.88373C8.46335 1.88373 1.74762 8.44328 1.74762 16.5349C1.74762 24.6265 8.46335 31.1861 16.7476 31.1861Z" stroke="#333333" stroke-width="2.5" stroke-linecap="round" stroke-linejoin="round"/>
<path d="M11.1226 15.3139C12.1582 15.3139 12.9976 14.494 12.9976 13.4825C12.9976 12.4711 12.1582 11.6512 11.1226 11.6512C10.0871 11.6512 9.24762 12.4711 9.24762 13.4825C9.24762 14.494 10.0871 15.3139 11.1226 15.3139Z" fill="#333333"/>
<path d="M22.3726 15.3139C23.4082 15.3139 24.2476 14.494 24.2476 13.4825C24.2476 12.4711 23.4082 11.6512 22.3726 11.6512C21.3371 11.6512 20.4976 12.4711 20.4976 13.4825C20.4976 14.494 21.3371 15.3139 22.3726 15.3139Z" fill="#333333"/>
<path d="M11.7476 21.4186C12.7851 20.6886 14.5264 20.1976 16.7476 20.1976C18.9689 20.1976 20.7101 20.6886 21.7476 21.4186" stroke="#333333" stroke-width="2.5" stroke-linecap="round" stroke-linejoin="round"/>
</svg>
