<svg width="33" height="33" viewBox="0 0 33 33" fill="none" xmlns="http://www.w3.org/2000/svg">
<path d="M16.4164 31.1861C24.7007 31.1861 31.4164 24.6265 31.4164 16.5349C31.4164 8.44328 24.7007 1.88373 16.4164 1.88373C8.13211 1.88373 1.41638 8.44328 1.41638 16.5349C1.41638 24.6265 8.13211 31.1861 16.4164 31.1861Z" stroke="#333333" stroke-width="2.5" stroke-linecap="round" stroke-linejoin="round"/>
<path d="M10.7914 15.3139C11.8269 15.3139 12.6664 14.494 12.6664 13.4825C12.6664 12.4711 11.8269 11.6512 10.7914 11.6512C9.75585 11.6512 8.91638 12.4711 8.91638 13.4825C8.91638 14.494 9.75585 15.3139 10.7914 15.3139Z" fill="#333333"/>
<path d="M22.0414 15.3139C23.0769 15.3139 23.9164 14.494 23.9164 13.4825C23.9164 12.4711 23.0769 11.6512 22.0414 11.6512C21.0058 11.6512 20.1664 12.4711 20.1664 13.4825C20.1664 14.494 21.0058 15.3139 22.0414 15.3139Z" fill="#333333"/>
<path d="M21.4164 20.1977C20.3789 20.9277 18.6376 21.4186 16.4164 21.4186C14.1951 21.4186 12.4539 20.9277 11.4164 20.1977" stroke="#333333" stroke-width="2.5" stroke-linecap="round" stroke-linejoin="round"/>
</svg>
