<svg width="34" height="33" viewBox="0 0 34 33" fill="none" xmlns="http://www.w3.org/2000/svg">
<path d="M17.2113 0.662781C13.9974 0.662781 10.8556 1.59366 8.18329 3.33771C5.511 5.08176 3.42819 7.56064 2.19827 10.4609C0.968345 13.3611 0.64654 16.5525 1.27355 19.6314C1.90056 22.7103 3.44822 25.5384 5.72083 27.7581C7.99343 29.9779 10.8889 31.4896 14.0411 32.102C17.1933 32.7144 20.4606 32.4001 23.4299 31.1988C26.3992 29.9975 28.9371 27.9631 30.7227 25.3529C32.5083 22.7428 33.4613 19.6741 33.4613 16.5349C33.4568 12.3267 31.7433 8.29215 28.6968 5.31652C25.6503 2.34089 21.5197 0.667225 17.2113 0.662781ZM17.2113 29.9651C14.4918 29.9651 11.8334 29.1774 9.57222 27.7017C7.31104 26.226 5.54867 24.1285 4.50797 21.6744C3.46726 19.2203 3.19497 16.52 3.72551 13.9148C4.25606 11.3096 5.56562 8.91652 7.48859 7.03827C9.41156 5.16001 11.8616 3.88091 14.5288 3.3627C17.1961 2.84449 19.9607 3.11045 22.4732 4.12696C24.9857 5.14346 27.1331 6.86485 28.644 9.07344C30.1549 11.282 30.9613 13.8786 30.9613 16.5349C30.9572 20.0956 29.5072 23.5092 26.9295 26.027C24.3517 28.5448 20.8568 29.9611 17.2113 29.9651ZM24.7113 21.4186C24.7113 21.7424 24.5796 22.053 24.3452 22.2819C24.1108 22.5109 23.7928 22.6395 23.4613 22.6395H10.9613C10.6298 22.6395 10.3118 22.5109 10.0774 22.2819C9.84301 22.053 9.71131 21.7424 9.71131 21.4186C9.71131 21.0948 9.84301 20.7842 10.0774 20.5553C10.3118 20.3263 10.6298 20.1977 10.9613 20.1977H23.4613C23.7928 20.1977 24.1108 20.3263 24.3452 20.5553C24.5796 20.7842 24.7113 21.0948 24.7113 21.4186ZM9.71131 13.4825C9.71131 13.1203 9.82128 12.7663 10.0273 12.4651C10.2333 12.1639 10.5262 11.9292 10.8688 11.7906C11.2114 11.6519 11.5884 11.6157 11.9521 11.6863C12.3158 11.757 12.6499 11.9314 12.9121 12.1876C13.1744 12.4437 13.3529 12.77 13.4253 13.1253C13.4976 13.4805 13.4605 13.8487 13.3186 14.1834C13.1767 14.518 12.9363 14.8041 12.628 15.0053C12.3197 15.2065 11.9572 15.3139 11.5863 15.3139C11.089 15.3139 10.6121 15.121 10.2605 14.7775C9.90885 14.4341 9.71131 13.9683 9.71131 13.4825ZM24.7113 13.4825C24.7113 13.8448 24.6013 14.1988 24.3953 14.5C24.1893 14.8012 23.8965 15.0359 23.5538 15.1745C23.2112 15.3132 22.8342 15.3494 22.4705 15.2788C22.1068 15.2081 21.7727 15.0337 21.5105 14.7775C21.2483 14.5214 21.0697 14.1951 20.9973 13.8398C20.925 13.4846 20.9621 13.1163 21.104 12.7817C21.246 12.4471 21.4863 12.161 21.7946 11.9598C22.103 11.7586 22.4655 11.6512 22.8363 11.6512C23.3336 11.6512 23.8105 11.8441 24.1621 12.1876C24.5138 12.531 24.7113 12.9968 24.7113 13.4825Z" fill="#333333"/>
</svg>
